<?xml version="1.0" encoding="UTF-8" standalone="no"?>
<!-- Created with Keyshape -->
<svg xmlns="http://www.w3.org/2000/svg" xmlns:xlink="http://www.w3.org/1999/xlink" viewBox="0 0 128 128" text-rendering="geometricPrecision" shape-rendering="geometricPrecision" style="white-space: pre;">
    <style>
@keyframes a0_t { 0% { transform: translate(51.262522px,84.994137px) rotate(0deg) scale(0.193534,0.193534) translate(-79.559006px,-88.772003px); } 45% { transform: translate(51.262522px,84.994137px) rotate(360deg) scale(0.193534,0.193534) translate(-79.559006px,-88.772003px); } 100% { transform: translate(51.262522px,84.994137px) rotate(720deg) scale(0.193534,0.193534) translate(-79.559006px,-88.772003px); } }
@keyframes a1_do { 0% { stroke-dashoffset: 240px; } 45% { stroke-dashoffset: 0px; } 100% { stroke-dashoffset: 0px; } }
    </style>
    <defs>
        <symbol id="Symbol-2" preserveAspectRatio="none" width="159.118" height="177.544" viewBox="0 0 159.118 177.544" overflow="visible">
            <path class="path " stroke="#a8e9f7" stroke-width="0" stroke-linejoin="round" stroke-linecap="round" stroke-miterlimit="1000" stroke-dasharray="300" stroke-dashoffset="2000" fill="#4CADC1" d="M159.49,300.47L159.49,372.15C159.489,372.52,159.538,372.889,159.635,373.246C159.732,373.604,159.877,373.946,160.065,374.265C160.254,374.584,160.484,374.876,160.75,375.134C161.016,375.391,161.315,375.612,161.64,375.79L198.57,396.16L224.46,411.5C225.089,411.875,225.807,412.077,226.54,412.084C227.273,412.091,227.994,411.903,228.631,411.54C229.268,411.177,229.796,410.652,230.163,410.017C230.53,409.383,230.722,408.663,230.72,407.93L230.72,336.43C230.721,336.065,230.673,335.702,230.579,335.35C230.485,334.997,230.344,334.659,230.162,334.343C229.979,334.028,229.755,333.737,229.497,333.48C229.238,333.223,228.947,333.001,228.63,332.82L165.7,296.82C165.065,296.457,164.346,296.268,163.615,296.273C162.884,296.277,162.167,296.474,161.537,296.845C160.907,297.215,160.385,297.746,160.026,298.382C159.667,299.019,159.482,299.739,159.49,300.47Z" transform="translate(-159.482,-236.031)"/>
            <path class="path " stroke="#a8e9f7" stroke-width="0" stroke-linejoin="round" stroke-linecap="round" stroke-miterlimit="1000" stroke-dasharray="300" stroke-dashoffset="2000" fill="#4CADC1" d="M278.27,257.43L241.44,236.56C241.13,236.387,240.8,236.255,240.456,236.166C240.113,236.076,239.76,236.031,239.405,236.031C239.05,236.031,238.697,236.076,238.354,236.166C238.01,236.255,237.68,236.387,237.37,236.56L201.37,256.56L171.13,273.83C170.5,274.189,169.975,274.707,169.607,275.333C169.24,275.959,169.042,276.669,169.035,277.395C169.028,278.12,169.211,278.835,169.567,279.468C169.922,280.1,170.437,280.628,171.06,281L236.29,319.76C236.606,319.944,236.945,320.085,237.298,320.18C237.651,320.275,238.015,320.323,238.38,320.323C238.745,320.323,239.109,320.275,239.462,320.18C239.815,320.085,240.154,319.944,240.47,319.76L277.76,298.47L306.7,282.37C307.331,282.018,307.859,281.508,308.233,280.89C308.606,280.271,308.811,279.566,308.829,278.844C308.846,278.121,308.674,277.407,308.331,276.772C307.987,276.136,307.484,275.601,306.87,275.22Z" transform="translate(-159.482,-236.031)"/>
            <path class="path " stroke="#a8e9f7" stroke-width="0" stroke-linejoin="round" stroke-linecap="round" stroke-miterlimit="1000" stroke-dasharray="300" stroke-dashoffset="2000" fill="#4CADC1" d="M318.6,299.36C318.6,298.636,318.411,297.924,318.051,297.296C317.691,296.668,317.172,296.145,316.548,295.779C315.923,295.413,315.213,295.217,314.489,295.21C313.765,295.203,313.052,295.386,312.42,295.74L285.07,311.05L248,332.78C247.69,332.963,247.404,333.185,247.151,333.441C246.898,333.697,246.679,333.985,246.5,334.298C246.321,334.611,246.183,334.945,246.091,335.293C245.998,335.641,245.95,336,245.95,336.36L245.95,409.44C245.953,410.169,246.149,410.885,246.517,411.514C246.885,412.144,247.412,412.666,248.046,413.027C248.68,413.388,249.397,413.575,250.127,413.57C250.856,413.566,251.571,413.369,252.2,413L280.85,396.2L316.51,375.82C316.826,375.639,317.117,375.418,317.375,375.161C317.633,374.905,317.856,374.616,318.039,374.301C318.222,373.986,318.362,373.649,318.457,373.298C318.552,372.946,318.6,372.584,318.6,372.22Z" transform="translate(-159.482,-236.031)"/>
        </symbol>
    </defs>
    <g xlink:href="#Symbol-3" transform="translate(60.6497,60.0858) scale(1,1) translate(-55.6495,-35.0857)"/>
    <use width="159.118" height="177.544" xlink:href="#Symbol-2" transform="translate(51.2625,84.9941) scale(0.193534,0.193534) translate(-79.559,-88.772)" style="animation: a0_t 2s linear infinite both;"/>
    <path d="M1.74189,-2.42872C-25.3627,-2.27046,-24.2581,-34.4287,-5.25811,-36.9287C-8.41805,-62.8472,31.2419,-78.4287,44.7419,-49.9287C58.6408,-60.4188,77.5088,-51.6373,78.2419,-34.4287C95.6456,-30.3245,93.7419,-2.42872,75.8382,-2.42872L52.7419,-2.42872" stroke="#99a7bf" fill="none" stroke-width="6" stroke-miterlimit="1" stroke-linecap="butt" stroke-linejoin="round" stroke-dashoffset="240" stroke-dasharray="240 240" transform="translate(24.2581,93.9287)" style="animation: a1_do 2s linear infinite both;"/>
</svg>
